<svg width="42" height="42" viewBox="0 0 42 42" fill="none" xmlns="http://www.w3.org/2000/svg">
<g clip-path="url(#clip0)">
<path d="M31.9521 7.34208C31.9521 6.36888 31.5675 5.45273 30.8706 4.76439L27.3907 1.32743C26.7034 0.648571 25.7278 0.259277 24.7569 0.259277H24.5454V7.55094H31.9522L31.9521 7.34208Z" fill="#1F104A"/>
<path d="M22.4714 25.3375C22.7069 24.6313 23.1179 23.9739 23.6538 23.441L31.9851 15.2458V9.9815H23.339C22.6588 9.9815 22.1484 9.43795 22.1484 8.76622V0.259277H3.69141C1.65588 0.259277 0 1.89472 0 3.90511V38.0949C0 40.1053 1.65588 41.7408 3.69141 41.7408H28.2608C30.2964 41.7408 31.9851 40.1053 31.9851 38.0949V29.0248L30.6328 30.3279C30.085 30.8643 29.4433 31.2548 28.7199 31.4934L24.8074 32.7834L24.2114 32.8155C23.226 32.8155 22.2936 32.342 21.7144 31.5492C21.14 30.76 20.9838 29.737 21.2962 28.8125L22.4714 25.3375ZM6.15234 22.1343H18.4171C19.0972 22.1343 19.6476 22.6778 19.6476 23.3496C19.6476 24.0213 19.0972 24.5648 18.4171 24.5648H6.15234C5.47222 24.5648 4.92188 24.0213 4.92188 23.3496C4.92188 22.6778 5.47222 22.1343 6.15234 22.1343ZM4.92188 18.4884C4.92188 17.8167 5.47222 17.2732 6.15234 17.2732H18.4171C19.0972 17.2732 19.6476 17.8167 19.6476 18.4884C19.6476 19.1602 19.0972 19.7037 18.4171 19.7037H6.15234C5.47222 19.7037 4.92188 19.1602 4.92188 18.4884ZM4.92188 28.2107C4.92188 27.5389 5.47222 26.9954 6.15234 26.9954H18.4171C19.0972 26.9954 19.6476 27.5389 19.6476 28.2107C19.6476 28.8824 19.0972 29.4259 18.4171 29.4259H6.15234C5.47222 29.4259 4.92188 28.8824 4.92188 28.2107ZM23.339 34.2871C24.0191 34.2871 24.5694 34.8306 24.5694 35.5023C24.5694 36.1741 24.0192 36.7176 23.339 36.7176H15.9561C15.276 36.7176 14.7257 36.1741 14.7257 35.5023C14.7257 34.8306 15.276 34.2871 15.9561 34.2871H23.339ZM6.15234 14.8426C5.47222 14.8426 4.92188 14.2991 4.92188 13.6273C4.92188 12.9556 5.47222 12.4121 6.15234 12.4121H23.339C24.0191 12.4121 24.5694 12.9556 24.5694 13.6273C24.5694 14.2991 24.0191 14.8426 23.339 14.8426H6.15234Z" fill="#1F104A"/>
<path d="M24.7008 26.4126L23.6303 29.5846C23.4699 30.0597 23.9277 30.5117 24.4088 30.353L27.6185 29.2943L24.7008 26.4126Z" fill="#1F104A"/>
<path d="M34.2571 16.4067L26.1533 24.4105L29.6483 27.8623C31.4799 26.053 35.0437 22.5326 37.7516 19.8581L34.2571 16.4067Z" fill="#1F104A"/>
<path d="M41.2771 12.9211C40.8445 12.4915 40.2077 12.2458 39.5323 12.2458C38.8569 12.2458 38.2201 12.4915 37.7851 12.9224L35.9971 14.6883L39.4914 18.1395C40.4703 17.1727 41.1469 16.5044 41.2796 16.3734C42.2408 15.4227 42.2407 13.8741 41.2771 12.9211Z" fill="#1F104A"/>
<path d="M41.2793 16.3747C41.2794 16.3747 41.2794 16.3746 41.2795 16.3745C41.2832 16.3708 41.2849 16.3692 41.2879 16.3662C41.2849 16.3693 41.2832 16.3709 41.2793 16.3747Z" fill="#1F104A"/>
<path d="M41.2881 16.3675C41.292 16.3636 41.2966 16.359 41.299 16.3567C41.2965 16.3591 41.292 16.3636 41.2881 16.3675Z" fill="#1F104A"/>
<path d="M41.2974 16.3567C41.3068 16.3473 41.307 16.3471 41.2974 16.3567V16.3567Z" fill="#1F104A"/>
</g>
<defs>
<clipPath id="clip0">
<rect width="42" height="41.4815" fill="white" transform="translate(0 0.259277)"/>
</clipPath>
</defs>
</svg>
