<svg width="48" height="47" viewBox="0 0 48 47" fill="none" xmlns="http://www.w3.org/2000/svg">
<circle cx="20.5" cy="19.75" r="17" stroke="#1F104A" stroke-width="3"/>
<path d="M33.7478 19.1323L32.0223 17.3824C31.9417 17.3008 31.8459 17.2361 31.7405 17.1919C31.635 17.1478 31.522 17.1251 31.4078 17.1252H30.1303L27.4922 13.1852C27.2548 12.8256 26.9331 12.5308 26.5558 12.3269C26.1784 12.123 25.757 12.0163 25.329 12.0163H16.0609C15.5777 12.0146 15.1038 12.1496 14.6928 12.406C14.2818 12.6624 13.9502 13.0299 13.7356 13.4669L11.7977 17.1252H9.73333C9.27362 17.1252 8.83274 17.3095 8.50768 17.6377C8.18262 17.9659 8 18.411 8 18.8751V22.6244C8 22.8564 8.09131 23.079 8.25384 23.243C8.41637 23.4071 8.63681 23.4993 8.86667 23.4993H10.7595C10.936 24.0108 11.2657 24.4541 11.703 24.7678C12.1404 25.0815 12.6635 25.25 13.2 25.25C13.7365 25.25 14.2596 25.0815 14.697 24.7678C15.1343 24.4541 15.464 24.0108 15.6405 23.4993H26.3595C26.536 24.0108 26.8657 24.4541 27.303 24.7678C27.7404 25.0815 28.2635 25.25 28.8 25.25C29.3365 25.25 29.8596 25.0815 30.297 24.7678C30.7343 24.4541 31.064 24.0108 31.2405 23.4993H33.1333C33.3632 23.4993 33.5836 23.4071 33.7462 23.243C33.9087 23.079 34 22.8564 34 22.6244V19.75C34.0002 19.5186 33.9095 19.2964 33.7478 19.1323ZM26.0501 14.1555L28.0477 17.1252H21L21.0563 13.7662H25.329C25.4716 13.7661 25.6121 13.8017 25.7379 13.8696C25.8637 13.9375 25.9709 14.0357 26.0501 14.1555ZM15.2861 14.25C15.3575 14.1043 15.468 13.9817 15.6049 13.8962C15.7419 13.8107 15.8998 13.7656 16.0609 13.7662H19.323L19.2667 17.1252H13.7356L15.2861 14.25ZM13.2 23.4993C13.0286 23.4993 12.861 23.448 12.7185 23.3519C12.576 23.2557 12.4649 23.1191 12.3993 22.9592C12.3337 22.7993 12.3165 22.6234 12.35 22.4537C12.3834 22.2839 12.466 22.128 12.5872 22.0057C12.7084 21.8833 12.8628 21.8 13.0309 21.7662C13.199 21.7325 13.3733 21.7498 13.5317 21.816C13.69 21.8822 13.8254 21.9944 13.9206 22.1383C14.0158 22.2821 14.0667 22.4513 14.0667 22.6244C14.0667 22.8564 13.9754 23.079 13.8128 23.243C13.6503 23.4071 13.4299 23.4993 13.2 23.4993ZM28.8 23.4993C28.6286 23.4993 28.461 23.448 28.3185 23.3519C28.176 23.2557 28.0649 23.1191 27.9993 22.9592C27.9337 22.7993 27.9165 22.6234 27.95 22.4537C27.9834 22.2839 28.066 22.128 28.1872 22.0057C28.3084 21.8833 28.4628 21.8 28.6309 21.7662C28.799 21.7325 28.9733 21.7498 29.1317 21.816C29.29 21.8822 29.4254 21.9944 29.5206 22.1383C29.6158 22.2821 29.6667 22.4513 29.6667 22.6244C29.6667 22.8564 29.5754 23.079 29.4128 23.243C29.2503 23.4071 29.0299 23.4993 28.8 23.4993Z" fill="#1F104A"/>
<path d="M31.6381 35.4787C33.4118 34.1995 34.9442 32.6281 36.1739 30.8392L36.2963 30.9605L44.1304 38.7204L44.1337 38.7237L44.6304 39.2204L44.6306 39.2205C45.0861 39.6758 45.577 40.2963 45.9482 40.9092C46.3471 41.568 46.5 42.0431 46.5 42.25V42.2503C46.5001 42.8442 46.3964 43.24 46.222 43.5803C46.0363 43.9426 45.7394 44.3048 45.247 44.7974C44.7393 45.3053 44.4911 45.4932 44.2576 45.5943C44.0313 45.6924 43.7213 45.75 43 45.75C41.9781 45.75 41.2888 45.1241 40.2069 44.0427L40.2069 44.0427L31.9171 35.7575L31.6381 35.4787Z" fill="#1F104A" stroke="#1F104A" stroke-width="2"/>
</svg>
