<svg width="26" height="26" viewBox="0 0 26 26" fill="none" xmlns="http://www.w3.org/2000/svg">
<path d="M24.375 6.04297V13C24.375 13.4401 24.2184 13.821 23.9053 14.1426C23.5921 14.4642 23.207 14.625 22.75 14.625H14.625V19.957C15.1159 20.2448 15.5094 20.6341 15.8057 21.125C16.1019 21.6159 16.25 22.1575 16.25 22.75C16.25 23.6471 15.9326 24.4131 15.2979 25.0478C14.6631 25.6826 13.8971 26 13 26C12.1029 26 11.3369 25.6826 10.7021 25.0478C10.0674 24.4131 9.75 23.6471 9.75 22.75C9.75 22.1575 9.89811 21.6159 10.1943 21.125C10.4906 20.6341 10.8841 20.2448 11.375 19.957V14.625H4.875V19.957C5.36589 20.2448 5.75944 20.6341 6.05566 21.125C6.35189 21.6159 6.5 22.1575 6.5 22.75C6.5 23.6471 6.18262 24.4131 5.54785 25.0478C4.91309 25.6826 4.14714 26 3.25 26C2.35286 26 1.58691 25.6826 0.952148 25.0478C0.317383 24.4131 0 23.6471 0 22.75C0 22.1575 0.148112 21.6159 0.444336 21.125C0.74056 20.6341 1.13411 20.2448 1.625 19.957V6.04297C1.13411 5.75521 0.74056 5.36588 0.444336 4.875C0.148112 4.38411 0 3.84245 0 3.25C0 2.35286 0.317383 1.58691 0.952148 0.952148C1.58691 0.317383 2.35286 0 3.25 0C4.14714 0 4.91309 0.317383 5.54785 0.952148C6.18262 1.58691 6.5 2.35286 6.5 3.25C6.5 3.84245 6.35189 4.38411 6.05566 4.875C5.75944 5.36588 5.36589 5.75521 4.875 6.04297V11.375H11.375V6.04297C10.8841 5.75521 10.4906 5.36588 10.1943 4.875C9.89811 4.38411 9.75 3.84245 9.75 3.25C9.75 2.35286 10.0674 1.58691 10.7021 0.952148C11.3369 0.317383 12.1029 0 13 0C13.8971 0 14.6631 0.317383 15.2979 0.952148C15.9326 1.58691 16.25 2.35286 16.25 3.25C16.25 3.84245 16.1019 4.38411 15.8057 4.875C15.5094 5.36588 15.1159 5.75521 14.625 6.04297V11.375H21.125V6.04297C20.6341 5.75521 20.2406 5.36588 19.9443 4.875C19.6481 4.38411 19.5 3.84245 19.5 3.25C19.5 2.35286 19.8174 1.58691 20.4521 0.952148C21.0869 0.317383 21.8529 0 22.75 0C23.6471 0 24.4131 0.317383 25.0479 0.952148C25.6826 1.58691 26 2.35286 26 3.25C26 3.84245 25.8519 4.38411 25.5557 4.875C25.2594 5.36588 24.8659 5.75521 24.375 6.04297Z" fill="#1F104A"/>
<path d="M24.375 6.04297V13C24.375 13.4401 24.2184 13.821 23.9053 14.1426C23.5921 14.4642 23.207 14.625 22.75 14.625H14.625V19.957C15.1159 20.2448 15.5094 20.6341 15.8057 21.125C16.1019 21.6159 16.25 22.1575 16.25 22.75C16.25 23.6471 15.9326 24.4131 15.2979 25.0478C14.6631 25.6826 13.8971 26 13 26C12.1029 26 11.3369 25.6826 10.7021 25.0478C10.0674 24.4131 9.75 23.6471 9.75 22.75C9.75 22.1575 9.89811 21.6159 10.1943 21.125C10.4906 20.6341 10.8841 20.2448 11.375 19.957V14.625H4.875V19.957C5.36589 20.2448 5.75944 20.6341 6.05566 21.125C6.35189 21.6159 6.5 22.1575 6.5 22.75C6.5 23.6471 6.18262 24.4131 5.54785 25.0478C4.91309 25.6826 4.14714 26 3.25 26C2.35286 26 1.58691 25.6826 0.952148 25.0478C0.317383 24.4131 0 23.6471 0 22.75C0 22.1575 0.148112 21.6159 0.444336 21.125C0.74056 20.6341 1.13411 20.2448 1.625 19.957V6.04297C1.13411 5.75521 0.74056 5.36588 0.444336 4.875C0.148112 4.38411 0 3.84245 0 3.25C0 2.35286 0.317383 1.58691 0.952148 0.952148C1.58691 0.317383 2.35286 0 3.25 0C4.14714 0 4.91309 0.317383 5.54785 0.952148C6.18262 1.58691 6.5 2.35286 6.5 3.25C6.5 3.84245 6.35189 4.38411 6.05566 4.875C5.75944 5.36588 5.36589 5.75521 4.875 6.04297V11.375H11.375V6.04297C10.8841 5.75521 10.4906 5.36588 10.1943 4.875C9.89811 4.38411 9.75 3.84245 9.75 3.25C9.75 2.35286 10.0674 1.58691 10.7021 0.952148C11.3369 0.317383 12.1029 0 13 0C13.8971 0 14.6631 0.317383 15.2979 0.952148C15.9326 1.58691 16.25 2.35286 16.25 3.25C16.25 3.84245 16.1019 4.38411 15.8057 4.875C15.5094 5.36588 15.1159 5.75521 14.625 6.04297V11.375H21.125V6.04297C20.6341 5.75521 20.2406 5.36588 19.9443 4.875C19.6481 4.38411 19.5 3.84245 19.5 3.25C19.5 2.35286 19.8174 1.58691 20.4521 0.952148C21.0869 0.317383 21.8529 0 22.75 0C23.6471 0 24.4131 0.317383 25.0479 0.952148C25.6826 1.58691 26 2.35286 26 3.25C26 3.84245 25.8519 4.38411 25.5557 4.875C25.2594 5.36588 24.8659 5.75521 24.375 6.04297Z" stroke="white"/>
</svg>
