<?xml version="1.0" encoding="UTF-8"?>
<svg width="20px" height="20.0107655px" viewBox="0 0 20 20.0107655" version="1.1" xmlns="http://www.w3.org/2000/svg" xmlns:xlink="http://www.w3.org/1999/xlink">
    <title>user</title>
    <g id="Desktop" stroke="none" stroke-width="1" fill="none" fill-rule="evenodd">
        <g id="0.1.TiriacAuto-Homepage" transform="translate(-1138.000000, -138.000000)" fill="#1F104A" fill-rule="nonzero">
            <g id="drop" transform="translate(1106.000000, 111.000000)">
                <g id="icon" transform="translate(24.000000, 20.000000)">
                    <g id="user" transform="translate(8.000000, 7.000000)">
                        <path d="M14.4516044,10.6369945 C16.8661298,8.18690898 16.846926,4.24626385 14.4086361,1.81982737 C11.9703462,-0.606609122 8.02965424,-0.606609122 5.59136431,1.81982737 C3.15307437,4.24626385 3.13387062,8.18690898 5.54839603,10.6369945 C2.20752587,11.9503042 0.00781933616,15.171039 0,18.7607653 C0,19.0923435 0.131447807,19.4103952 0.365909058,19.6448564 C0.600370308,19.8793177 0.918421974,20.0107655 1.2500002,20.0107655 L18.7500002,20.0107655 C19.0815784,20.0107655 19.3996301,19.8793177 19.6340913,19.6448564 C19.8685526,19.4103952 20,19.0923435 20,18.7607653 C19.9921811,15.171039 17.7924745,11.9503042 14.4516044,10.6369945 Z M10.0000002,2.51076529 C12.071068,2.51076529 13.7500002,4.18969748 13.7500002,6.26076529 C13.7500002,8.3318331 12.071068,10.0107653 10.0000002,10.0107653 C7.92893239,10.0107653 6.2500002,8.3318331 6.2500002,6.26076529 C6.2522965,4.19064938 7.9298843,2.51306159 10.0000002,2.51076529 Z M2.62452103,17.5107653 C3.22321152,14.6029397 5.7811852,12.5149612 8.7500002,12.5107653 L11.2500002,12.5107653 C14.2188152,12.5149612 16.7767889,14.6029397 17.3754794,17.5107653 L2.62452103,17.5107653 Z" id="Shape"></path>
                    </g>
                </g>
            </g>
        </g>
    </g>
</svg>